<?xml version="1.0" encoding="utf-8"?>
<!-- Generator: Adobe Illustrator 19.1.0, SVG Export Plug-In . SVG Version: 6.00 Build 0)  -->
<svg version="1.1" xmlns="http://www.w3.org/2000/svg" xmlns:xlink="http://www.w3.org/1999/xlink" x="0px" y="0px" width="800px"
	 height="265px" viewBox="0 0 800 265" style="enable-background:new 0 0 800 265;" xml:space="preserve">
<style type="text/css">
	.st0{fill:#FFFFFF;}
	.st1{opacity:0.5;fill:#C6C6C6;}
	.st2{opacity:0.5;fill:#864C9E;}
	.st3{opacity:0.2;}
	.st4{fill:#8E8E8E;}
	.st5{opacity:0.2;fill:#8E8E8E;}
	.st6{fill:#5A326D;}
	.st7{opacity:0.2;fill:#5A326D;}
	.st8{opacity:0.5;fill:#C9BEA9;}
	.st9{opacity:0.3;fill:#998565;}
	.st10{opacity:0.5;fill:#DFB945;}
	.st11{fill:#1E1E1E;}
	.st12{fill:#C91F4C;}
	.st13{fill:none;stroke:#1E1E1E;stroke-width:3;stroke-miterlimit:10;}
	.st14{fill:none;stroke:#1E1E1E;stroke-width:3;stroke-miterlimit:10;stroke-dasharray:9.9863,9.9863;}
	.st15{fill:#79A845;}
	.st16{fill:#40A6DD;}
	.st17{fill:#80D3F2;}
	.st18{fill:none;stroke:#1E1E1E;stroke-width:3;stroke-miterlimit:10;stroke-dasharray:10.0229,10.0229;}
</style>
<g id="Layer_2">
	<rect class="st0" width="800" height="265"/>
</g>
<g id="Layer_7">
</g>
<g id="Layer_5">
</g>
<g id="Layer_1">
</g>
<g id="Layer_6">
	<path class="st8" d="M479.2,108.6c-0.8,0-1.6,0.1-2.4,0.1c-0.2-3.4-0.7-6.8-1.2-10.3c-1.3-8.5-3-17-6.4-25c-1.5-3.5-3-7.5-5.6-10.3
		c-3.5-3.8-5.7-1.7-9.7-1.6c-4.1,0.2-8.9-1-13.1-1.2c-4.9-0.3-9.8-0.6-14.8-0.8c-9.5-0.3-19-0.4-28.6-0.4c-19.4,0.2-38.8,1-58.2,1.7
		c-20.1,0.7-40.2,1.2-60.2,0.8c-0.3-0.1-0.5-0.2-0.8-0.3c-1.4-0.4-2.7-0.3-4,0.2c0,0,0,0,0,0c-0.3-0.5-0.8-1-1.3-1.3
		c-3.9-2.4-8.2,2.8-9.9,5.5c-5.3,8.2-6.8,16.9-8,26.4c-1.4,10.7-2.5,21.6-1.5,32.4c1.5,16.3,6.5,31.4,20.8,40.7
		c2.6,1.7,5.5,0.3,7.8-2.3c0.6,0.3,1.3,0.7,2,0.9c13.2,4.3,28.2,3.2,41.9,3.3c28,0.1,56.1,0.1,84.1-1.4c15.2-0.8,30.9-1.7,45.9-4.5
		c0.5-0.1,0.9-0.2,1.4-0.3c2.3,1.9,6.7-0.2,9.1-2.9c7.2-8.2,11.9-17.9,14.3-28.5c0.7-3-0.2-5.1-1.8-6.2c1.7-1.9,3-4.3,3.5-6.4
		C483.1,114.4,483.4,108.5,479.2,108.6z M461.8,129.3c0,0.2-0.1,0.3-0.1,0.5c-1.1-0.2-2.2-0.3-3.3-0.5c1.2-0.2,2.4-0.4,3.6-0.6
		C461.9,128.9,461.8,129.1,461.8,129.3z M476.3,137.4C476.5,136.5,476.8,136.8,476.3,137.4L476.3,137.4z"/>
	<path class="st9" d="M299.4,102c-0.9-9.6-4.5-17.7-10.1-25.5c-3.8-5.4-12.4-16.6-20.1-15c-5,1.1-8.9,7.9-8.7,12.7
		c0,0.1,0,0.1,0,0.2c0.1,2.8,1.6,4.6,3.8,4.8c11,5.8,20.1,19.2,21.1,31.5c1,12.2,1.3,28.2-6.2,38.7c-2.2,3.1-5.3,8.8-2.5,12.4
		c2.7,3.5,7.7,0.4,9.6-2.3C298.3,142.9,301.2,122,299.4,102z"/>
	<path class="st10" d="M754.7,95.3c-1.9-7.3-4.7-14.9-10.1-20.3c-6.4-6.5-15.3-10.6-23.4-14.3c-8.4-3.7-17.1-6.1-26.2-7
		c-18-1.9-38.1-1.9-55.4,4.2c-1.6,0.6-3.2,1.2-4.7,1.8c-8.9,0.9-17.7,2.5-26.3,5.2c-4.1,1.3-7.2,5.1-8.5,9.1
		c-0.2-0.1-0.4-0.1-0.6-0.2c-4.1-1.5-7.7,1.6-9.9,4.8c-0.5,0.7-1,1.6-1.5,2.7c-0.5,0.4-1,0.7-1.5,1.1c-4.1,3.3-7.5,8.6-7.5,14
		c0,1.6,0.3,2.9,0.8,4c-6.5,2.2-13.1,13.9-6.7,18.3c3.3,2.3,6.8,4.2,10.4,5.8c-2.3,3.9-3.2,8.5-0.9,11.1
		c13.4,15.1,31.5,24,50.9,28.7c10.6,2.6,21.5,3.8,32.3,4.5c10.8,0.7,21.4,0.4,31.3-4.6c2.7-1.3,4.9-4.1,6.2-7.1
		c3.1,0.1,6.1,0.2,9.2,0.2c4.5,0,7.9-4,9.7-7.7c0.6-1.3,1.4-3.8,1.5-6.1c4.6-0.2,9.2-0.5,13.7-0.8c6-0.4,13.4-9.4,11.1-15.8
		c3.8-2.9,7-8.3,6.4-12.5C757.6,108.6,756.4,101.6,754.7,95.3z M678.4,82c8.7,1.9,17.1,4.6,24.8,9.1c-6.8-2.5-13.5-5.1-20.3-7.5
		C681.3,83.1,679.9,82.5,678.4,82z"/>
	<g>
		<g>
			<path class="st11" d="M267.2,62.6c-14.7,7.6-17,28.9-17.5,43.5c-0.7,16.4,1.4,37,11.3,50.8c4.2,5.8,10.3,10.6,17.8,9.4
				c6.7-1,11.5-5.6,14.1-11.6c7.4-17,7.9-37.3,6.5-55.4c-1.3-17.6-9.7-37.1-30.1-37.4c-2.5,0-2.5,3.8,0,3.9
				c17.3,0.2,24.8,16.9,26.2,31.8c1.4,15.4,1,31.3-3,46.3c-1.6,6.1-3.3,13.4-9.1,16.9c-8.6,5.1-16.3-0.9-20.7-8.2
				c-7.1-11.8-9.2-27.5-9.4-40.9c-0.1-9.4,0.9-18.9,3.2-28c1.9-7.6,5.1-14.9,11.9-19.3C269.5,63.8,268.5,62,267.2,62.6L267.2,62.6z"
				/>
		</g>
	</g>
	<g>
		<g>
			<path class="st11" d="M269.3,65.4c48,0.4,96,0.7,144.1,1c11,0.1,22,0.2,33,0.3c3.7,0.1,8.5-0.5,12,0.5
				c5.9,1.7,9.4,10.8,11.6,15.9c2.5,5.7,4.3,11.7,5.4,17.8c2.3,12.7,1.5,26-2,38.4c-1.5,5.3-3.3,13.9-8.2,17.1
				c-3.7,2.4-9.8,2.5-14.2,3.1c-17.5,2.2-35.2,2.8-52.8,3.3c-39.6,1-79.1,0-118.6,0c-2.5,0-2.5,3.9,0,3.9c36.9,0,73.7,0.9,110.6,0.2
				c19-0.4,38.1-1,56.9-3c7.6-0.8,18.3-0.6,23.4-7.2c3.2-4.1,4.8-9.8,6.2-14.7c1.7-5.8,2.9-11.8,3.4-17.8
				c1.2-12.3-0.2-24.9-4.3-36.5c-3-8.5-8.2-22.9-18.5-24.3c-8.6-1.1-17.8-0.4-26.4-0.5c-31.5-0.2-63-0.3-94.4-0.4
				c-22.4,0-44.8,0.1-67.2,0.2C267.5,62.5,267.5,65.3,269.3,65.4L269.3,65.4z"/>
		</g>
	</g>
	<g>
		<g>
			<g>
				<path class="st11" d="M61.8,104.1c0,4.9,0.1,9.8-0.2,14.7c-0.1,2.4,3.5,2.4,3.7,0c0.4-5,0.4-10.2-0.4-15.2
					C64.7,101.9,61.8,102.4,61.8,104.1L61.8,104.1z"/>
			</g>
		</g>
		<g>
			<g>
				<path class="st11" d="M64.9,106.1c6.2-1.4,5.6,12.2,0.4,10.8c-2.1-0.6-3.5,2.5-1.5,3.5c6,3,9.4-4.1,9.3-9c0-2.6-0.7-5.4-2.8-7.2
					c-1.9-1.5-4.4-1.9-6.4-0.5C62.6,104.5,63.3,106.5,64.9,106.1L64.9,106.1z"/>
			</g>
		</g>
		<g>
			<g>
				<path class="st11" d="M76,103.6c-1.2,2.2-0.7,4.9-0.7,7.4c0,2.8-0.3,5.7,0.2,8.5c0.3,1.7,3,1.6,3.4,0c0.6-2.8,0.2-5.7,0.1-8.5
					c-0.1-2.4,0.2-5.3-1.1-7.4C77.4,102.9,76.4,102.8,76,103.6L76,103.6z"/>
			</g>
		</g>
		<g>
			<g>
				<path class="st11" d="M91.7,105.8c-1.9-3.8-8-4.7-9.6,0c-0.7,2,0,4.1,1.3,5.7c0.9,1.1,2.1,1.9,3.2,2.8c0.4,0.3,2,1.3,2,1.8
					c0,1.5-2.7,1.5-3.1,0.2c-0.5-1.7-2.8-1.6-3.4,0c-2.1,5.7,7.6,6.2,10,2.4c1.4-2.1,0.3-4.5-1.3-6.1c-1.1-1.1-2.6-1.9-3.6-3
					c-0.5-0.4-0.9-1-1.2-1.6c0.3-0.5,0.6-1,0.9-1.5c0.8-0.3,2.2,0.9,2.8,1.3C90.9,108.8,92.3,107,91.7,105.8L91.7,105.8z"/>
			</g>
		</g>
		<g>
			<g>
				<path class="st11" d="M95.7,104.2c-0.6,4.9-1,10.6-0.5,15.5c0.2,2.4,3.5,2.4,3.8,0c0.6-4.9,0.4-10.6-0.1-15.5
					C98.6,102.2,96,102.3,95.7,104.2L95.7,104.2z"/>
			</g>
		</g>
		<g>
			<g>
				<path class="st11" d="M97.3,106.1c1.1-0.1,2.3,0,3.4,0.3c1.2,0.4,1.6,0.8,1.8,2.1c0.4,2-2.4,2.1-3.8,1.9
					c-2.5-0.4-3.6,3.1-1.1,3.9c3.8,1.2,9.6-1.1,8.9-5.7c-0.3-2-1.1-3.9-3-4.8c-2-1-4.5-0.8-6.6-0.4
					C95.4,103.6,95.7,106.2,97.3,106.1L97.3,106.1z"/>
			</g>
		</g>
		<g>
			<g>
				<path class="st11" d="M109.6,119.8c2-4.8,3.3-9.9,5.3-14.7c-1.2,0-2.4,0-3.6,0c1.6,4.6,3.2,9.3,4.4,14.1
					c0.6,2.5,4.7,1.4,3.9-1.1c-1.6-4.6-3.1-9.3-4.7-14c-0.7-1.9-2.9-1.7-3.6,0c-2,4.8-4,10.1-4.4,15.4
					C106.8,121.1,109.1,121.1,109.6,119.8L109.6,119.8z"/>
			</g>
		</g>
		<g>
			<g>
				<path class="st11" d="M110.7,116.7c0.8,0.1,1.6,0,2.3,0c0.9,0,1.8,0,2.6-0.5c1.2-0.7,1.1-2.8-0.4-3.1c-0.9-0.2-1.7,0.1-2.6,0.3
					c-0.8,0.2-1.5,0.2-2.3,0.4c-0.7,0.2-1.2,0.9-1,1.6C109.4,116.2,109.9,116.7,110.7,116.7L110.7,116.7z"/>
			</g>
		</g>
		<g>
			<g>
				<path class="st11" d="M119,106c3,0.3,6.2,0.4,9.2,0.3c2.5-0.1,2.5-3.8,0-3.9c-3.1-0.1-6.5,0.2-9.6,0.8
					C116.9,103.6,117.5,105.9,119,106L119,106z"/>
			</g>
		</g>
		<g>
			<g>
				<path class="st11" d="M123.5,104.7c-1.2,4.6-0.2,9.4-0.6,14.1c0.9-0.7,1.7-1.3,2.6-2c0,0-0.1,0-0.1,0c0.5,0.8,0.9,1.6,1.4,2.5
					c0,0,0,0,0-0.1c0.4-1.3-0.6-2.3-1.9-2.5c0,0,0,0-0.1,0c-1.1-0.1-1.9,1-2,2c0,0,0,0.1,0,0.1c-0.1,1.8,2.4,2.7,3.5,1.5
					c1.5-1.6,0.6-4.5,0.4-6.5c-0.3-2.9-0.4-5.7-0.5-8.6C126.3,103.5,124,103.1,123.5,104.7L123.5,104.7z"/>
			</g>
		</g>
		<g>
			<g>
				<path class="st11" d="M141.9,107.6c-0.1-3-3-4.9-5.8-4.6c-3.6,0.3-4.5,4.2-4.7,7.3c-0.2,3.2,0.2,8,3.3,9.9
					c3.1,1.8,5.9-0.6,7.1-3.4c1-2.2-2.2-4.1-3.2-1.9c-0.8,1.8-1.9,3.1-3,0.4c-0.5-1.2-0.5-2.8-0.5-4.1c0-1,0-4.4,1.7-4.5
					c1.2-0.1,2,1.3,2.7,2C140.3,109.5,141.9,108.8,141.9,107.6L141.9,107.6z"/>
			</g>
		</g>
		<g>
			<g>
				<path class="st11" d="M145.8,103.6c-0.7,5,0,10.6,0.4,15.6c0.2,2.5,4.2,2.6,4,0c-0.3-5.2-0.5-11-1.9-16
					C147.9,101.8,146,102.2,145.8,103.6L145.8,103.6z"/>
			</g>
		</g>
		<g>
			<g>
				<path class="st11" d="M148.2,113.4c2.2,0,4.5-0.1,6.7,0.2c2.7,0.3,2.5-4.6-0.5-3.9c-2,0.5-4.1,0.6-6.1,0.9
					C146.4,110.8,146.3,113.4,148.2,113.4L148.2,113.4z"/>
			</g>
		</g>
		<g>
			<g>
				<path class="st11" d="M154.1,103.3c-0.7,2.6-0.4,5.4-0.3,8c0,2.7,0,5.5,0.6,8.2c0.5,2.2,3.7,1.6,3.8-0.5
					c0.2-2.7-0.3-5.5-0.6-8.2c-0.2-2.5-0.1-5.1-0.9-7.4C156.3,102.1,154.5,102,154.1,103.3L154.1,103.3z"/>
			</g>
		</g>
	</g>
	<g>
		<g>
			<g>
				<path class="st11" d="M336.9,103c-0.8,4.9-0.4,10.1-0.4,15c0,2.5,3.9,2.5,3.9,0c0-4.9,0.4-10.2-0.4-15
					C339.7,101.5,337.1,101.5,336.9,103L336.9,103z"/>
			</g>
		</g>
		<g>
			<g>
				<path class="st11" d="M339.2,105.4c1.3-0.1,3.8,0.1,4.2,1.7c0.3,1.2-2,2.1-2.9,2c-1.1-0.2-2.1,0.3-2.5,1.4
					c-0.3,0.9,0.3,2.3,1.4,2.5c3.4,0.5,8.1-1.8,7.9-5.7c-0.3-4.3-5-5.7-8.5-4.7C337.3,102.9,337.5,105.5,339.2,105.4L339.2,105.4z"
					/>
			</g>
		</g>
		<g>
			<g>
				<path class="st11" d="M340.7,112.3c0.6,2.4,1.5,5,2.8,7.2c1.1,1.8,4.5,0.6,3.6-1.5c-0.9-2.4-2.3-4.7-3.8-6.8
					C342.4,109.9,340.4,110.6,340.7,112.3L340.7,112.3z"/>
			</g>
		</g>
		<g>
			<g>
				<path class="st11" d="M350.7,103.1c-1.4,2.1-1,5.2-1,7.7c0,2.4-0.6,5.6,0.1,7.9c0.2,0.7,0.7,1.3,1.4,1.4c2,0.5,4.5,0.1,6.5,0.1
					c2.7,0,2.7-4.2,0-4.2c-1.6,0-3.9,0.5-5.5,0.1c0.5,0.5,0.9,0.9,1.4,1.4c-0.7-2.3-0.1-5.6-0.1-8c0-2.2,0.4-4.7-0.8-6.6
					C352.2,102.4,351.2,102.4,350.7,103.1L350.7,103.1z"/>
			</g>
		</g>
		<g>
			<g>
				<path class="st11" d="M352.2,113.1c1.4,0,2.8,0.2,4.2-0.1c0.9-0.2,1.5-1.2,1.4-2.2c-0.1-0.9-0.9-1.8-1.9-1.7
					c-1.4,0.2-2.7,0.8-4,1.1C350.2,110.5,350.6,113.1,352.2,113.1L352.2,113.1z"/>
			</g>
		</g>
		<g>
			<g>
				<path class="st11" d="M352.1,105.8c1.6,0,3.2,0,4.8,0.4c1.2,0.3,2.4-0.5,2.6-1.7c0.2-1.2-0.8-2.4-2.1-2.4
					c-1.9,0-3.9,0.1-5.8,0.5C349.8,102.9,350.3,105.7,352.1,105.8L352.1,105.8z"/>
			</g>
		</g>
		<g>
			<g>
				<path class="st11" d="M361.8,103.9c-0.4,4.9-0.1,10.1,0.5,15c0.3,2.4,4,2.6,3.9,0c-0.2-5-0.4-10.1-1-15
					C364.9,101.7,362,101.7,361.8,103.9L361.8,103.9z"/>
			</g>
		</g>
		<g>
			<g>
				<path class="st11" d="M364.1,105.2c2.7,0.7,4.8,2.4,5.3,5.2c0.4,2.5-0.7,5.4-3.5,5.6c-2.6,0.1-2.6,4,0,4.1
					c4.9,0.1,7.9-4.6,7.6-9.1c-0.4-4.8-4.3-8.2-8.9-8.5C362.9,102.4,362.6,104.8,364.1,105.2L364.1,105.2z"/>
			</g>
		</g>
		<g>
			<g>
				<path class="st11" d="M375.5,103.9c-0.4,4.3-1.4,15.8,5.4,16c7.1,0.2,6-10.9,6-15.3c0-2.6-4-2.6-4,0c0,1.7,0,3.3-0.1,5
					c0,1-0.1,2-0.2,3c-0.1,1.4,0,2.8-1.7,2.5c-1.4-0.2-1.3-0.8-1.6-2.2c-0.2-1-0.3-2.1-0.4-3.2c-0.1-1.9-0.1-3.9-0.1-5.9
					C378.8,101.7,375.7,101.8,375.5,103.9L375.5,103.9z"/>
			</g>
		</g>
		<g>
			<g>
				<path class="st11" d="M399.7,107.1c0.1-3.2-2.7-5.9-5.9-5.6c-4,0.3-4.8,4.7-4.9,8c-0.1,3.5,0.6,8.3,4.2,9.8
					c3.4,1.5,6.9-0.6,7.9-4c0.7-2.5-3.2-3.5-3.8-1.1c-0.7,2.5-2.8,1.6-3.6-0.2c-0.5-1.2-0.6-2.8-0.6-4c0-0.9-0.1-3.6,0.8-4.2
					c1.3-1,2.8,0.7,3.3,1.8C397.5,108.9,399.7,108.8,399.7,107.1L399.7,107.1z"/>
			</g>
		</g>
		<g>
			<g>
				<path class="st11" d="M403.9,103.7c-0.7,2.4-0.3,5.1-0.3,7.5c0,2.1-0.4,5,0.3,7c0.3,0.9,0.9,1.3,1.8,1.4
					c2.1,0.3,6.3,0.2,7.5-1.9c1.3-2.3-2.1-4.3-3.6-2.1c-0.1,0.1-0.2,0.3-0.3,0.4c0.4-0.3,0.8-0.6,1.2-1c-1.4,0.5-3.5,0.9-4.9,0.7
					c0.6,0.5,1.2,0.9,1.8,1.4c-0.7-1.9-0.4-5-0.5-7.1c-0.2-2.2-0.1-4.5-0.9-6.5C405.9,102.6,404.2,102.4,403.9,103.7L403.9,103.7z"
					/>
			</g>
		</g>
		<g>
			<g>
				<path class="st11" d="M405.3,112.3c1.5,0.5,3,0.4,4.5,0.2c1-0.2,1.6-1.4,1.3-2.3c-0.3-1-1.4-1.6-2.3-1.3c-1,0.3-2,0.3-3,0.2
					c-0.8-0.1-1.6,0.7-1.6,1.4C404,111.3,404.5,112,405.3,112.3L405.3,112.3z"/>
			</g>
		</g>
		<g>
			<g>
				<path class="st11" d="M404.8,105.3c2.2,0.3,4.4,0.4,6.6,0.5c2.6,0.1,2.5-4.3,0-4c-2,0.2-4.1,0.3-6.2,0.3
					C403.4,102.1,402.8,105.1,404.8,105.3L404.8,105.3z"/>
			</g>
		</g>
		<g>
			<g>
				<path class="st11" d="M415.9,103.6c-1.3,4.6-0.8,10.2-0.9,15c-0.1,2.9,4.1,2.8,4.4,0c0-0.1,0-0.3,0.1-0.4
					c0.3-2.5-3.6-2.8-4.3-0.6c0,0.1-0.1,0.3-0.1,0.4c1.4,0.2,2.9,0.4,4.3,0.6c-0.1-4.7,0.4-10.4-0.8-15
					C418.2,102.2,416.3,102.3,415.9,103.6L415.9,103.6z"/>
			</g>
		</g>
		<g>
			<g>
				<path class="st11" d="M418.1,105.6c1,0,4.3,0.2,4,1.9c-0.3,1.9-3.5,1.7-4.8,1.6c-2.8-0.1-2.8,4.2,0,4.4c2.1,0.1,4.4,0,6.3-1.3
					c1.5-1.1,2.7-2.8,2.7-4.8c0-4.5-5-5.7-8.6-5.1C415.8,102.6,416.2,105.7,418.1,105.6L418.1,105.6z"/>
			</g>
		</g>
		<g>
			<g>
				<path class="st11" d="M419.7,112c0.4,2.6,2.1,5,3.1,7.4c1.3,3,5.7,1.1,4.1-1.7c-1.5-2.6-2.8-5.4-5.2-7.2
					C420.7,109.6,419.5,111,419.7,112L419.7,112z"/>
			</g>
		</g>
	</g>
	<g>
		<g>
			<g>
				<path class="st11" d="M613.8,103.5c-0.6,2.2-0.4,4.5-0.3,6.8c0.1,2.5,0.1,5,0.2,7.4c0.1,2.7,4.3,2.7,4.1,0
					c-0.1-2.5-0.3-5-0.4-7.4c-0.1-2.2-0.1-4.6-0.8-6.8C616.1,102.2,614.2,102.1,613.8,103.5L613.8,103.5z"/>
			</g>
		</g>
		<g>
			<g>
				<path class="st11" d="M614.8,104c1.3,5.2,4,10.2,6.1,15.1c1.1,2.6,5.3,0.4,3.9-2.3c-2.3-4.6-4.5-9.7-7.5-13.9
					C616.4,101.8,614.4,102.4,614.8,104L614.8,104z"/>
			</g>
		</g>
		<g>
			<g>
				<path class="st11" d="M622,103.8c-0.6,4.4-0.4,8.9-0.3,13.4c0.1,2.8,4.6,2.8,4.4,0c-0.3-4.5-0.4-9-1.4-13.4
					C624.4,102.5,622.2,102.4,622,103.8L622,103.8z"/>
			</g>
		</g>
		<g>
			<g>
				<path class="st11" d="M636.6,102.2c-2.1-0.3-6.9-0.4-8.5,1.2c-0.8,0.8-0.6,1.9-0.6,3c0.1,2.1,0.2,4.3,0.4,6.4
					c0.1,2.2-0.6,6.5,1.8,7.7c2.2,1.1,6.2-0.6,8.3-1.5c2.2-1,0.5-4-1.5-3.6c-1.1,0.2-2.9,0.4-3.9,0.9c-1.2,0-1.3,0.2-0.3,0.6
					c0-0.8-0.1-1.6-0.1-2.3c-0.1-1.6-0.2-3.1-0.2-4.7c-0.1-1.3-0.5-3.1-0.3-4.4c-0.3,0.4-0.7,0.9-1,1.3c2-0.8,4.3-0.6,6.3-1.6
					C638.1,104.6,638,102.4,636.6,102.2L636.6,102.2z"/>
			</g>
		</g>
		<g>
			<g>
				<path class="st11" d="M631.2,112.7c1.3,0,2.6-0.1,3.9-0.3c1-0.2,1.6-1.5,1.4-2.4c-0.3-1-1.4-1.7-2.4-1.4
					c-1.1,0.3-2.2,0.5-3.3,0.7c-0.8,0.1-1.4,1.1-1.2,1.9C629.6,112,630.3,112.7,631.2,112.7L631.2,112.7z"/>
			</g>
		</g>
		<g>
			<g>
				<path class="st11" d="M639.7,103.6c0.1,4.7,1.4,10.1,2.7,14.6c0.7,2.5,4.3,1.4,3.9-1.1c-0.9-4.6-2.2-10-4.3-14.2
					C641.5,101.8,639.7,102.4,639.7,103.6L639.7,103.6z"/>
			</g>
		</g>
		<g>
			<g>
				<path class="st11" d="M647.2,102.7c-2.7,4.1-4.6,10-4.9,14.8c-0.1,2.2,3,2.4,3.7,0.5c0.7-2.3,1.1-4.8,1.7-7.2
					c0.6-2.4,1.5-4.7,2-7.1C650.1,102.3,648.1,101.4,647.2,102.7L647.2,102.7z"/>
			</g>
		</g>
		<g>
			<g>
				<path class="st11" d="M649.5,104.7c0.1-0.1,0.1-0.1,0.2-0.2c-0.8-0.3-1.7-0.7-2.5-1c0.3,4.9,3,9.3,3.8,14.1
					c0.2,1.1,1.6,1.8,2.6,1.5c0,0,0,0,0,0c1.4-0.4,1.8-1.9,1.3-3.1c0,0,0-0.1,0-0.1c-0.8-1.8-3.3-1-3.8,0.5c0,0,0,0.1,0,0.1
					c0.7-0.5,1.4-1,2.1-1.6c0,0,0,0,0,0c0.7,0.5,1.4,1,2.1,1.6c-1-4.7-3.1-9.4-5.2-13.7c-0.9-1.8-3.8,0.1-2.3,1.8
					c0.1,0.1,0.1,0.1,0.2,0.2C648.2,105.2,649,105.2,649.5,104.7L649.5,104.7z"/>
			</g>
		</g>
		<g>
			<g>
				<path class="st11" d="M655.4,102.6c-2.2,4-2.9,9.2-4,13.6c-0.7,2.6,3.2,3.7,4.1,1.1c0.8-2.2,1.1-4.7,1.6-7c0.4-2.3,1.1-4.7,1-7
					C657.9,102,656.1,101.4,655.4,102.6L655.4,102.6z"/>
			</g>
		</g>
		<g>
			<g>
				<path class="st11" d="M676.5,105.5c-2.1-3-8.8-4.3-9.6,0.5c-0.4,2.3,1.5,4,3.2,5.2c1.1,0.8,2.8,1.4,3.2,2.7
					c0.2,0.8-0.6,2.5-1.6,2.2c-0.7-0.2-1.1-1.2-1.5-1.8c-1.3-2.1-4.4-0.3-3.3,1.9c1,2.1,2.8,4,5.3,3.7c2.2-0.3,4.2-1.9,4.9-3.9
					c0.8-2.3,0.1-4.5-1.8-6c-0.9-0.7-2-1.2-2.9-1.9c-0.9-0.6-2.7-1.5-0.5-1.6c1-0.1,1.9,0.4,2.8,0.9
					C675.8,107.9,677.3,106.7,676.5,105.5L676.5,105.5z"/>
			</g>
		</g>
		<g>
			<g>
				<path class="st11" d="M680,105.6c3.1,0.8,6.8,1,10,0.5c2.3-0.4,1.6-3.8-0.5-3.9c-3-0.1-6,0-9,0.1
					C678.5,102.3,678.1,105.2,680,105.6L680,105.6z"/>
			</g>
		</g>
		<g>
			<g>
				<path class="st11" d="M683,105.2c-0.2,2-0.2,4-0.2,6c0,1.8,0.4,4-0.1,5.7c-0.7,2.6,3.3,3.7,4,1.1c0.5-2.1,0.1-4.2-0.1-6.4
					c-0.2-2.3-0.4-4.5-0.9-6.8C685.3,103.2,683.1,103.8,683,105.2L683,105.2z"/>
			</g>
		</g>
		<g>
			<g>
				<path class="st11" d="M694.8,103c-0.8,2.4-1.1,5.1-1.6,7.6c-0.6,2.5-1.5,5.1-1.9,7.6c-0.3,1.8,2.4,3.5,3.3,1.4
					c2.1-4.6,3.4-11.6,2.5-16.6C696.9,101.7,695.2,102,694.8,103L694.8,103z"/>
			</g>
		</g>
		<g>
			<g>
				<path class="st11" d="M698,103.9c0,0,0-0.1,0-0.1c-0.4,0.4-0.9,0.9-1.3,1.3c0,0,0.1,0,0.1,0c-0.4-0.3-0.9-0.7-1.3-1
					c1.9,4.8,2.6,10.1,4.2,14.9c0.8,2.4,4.4,1.4,3.8-1c-0.8-3.2-2-6.3-3.1-9.3c-0.7-1.8-1.3-4.9-2.9-6.1c-0.5-0.3-1.2-0.2-1.6,0.2
					c-0.4,0.4-0.5,0.9-0.4,1.4C695.8,105.6,698,105.2,698,103.9L698,103.9z"/>
			</g>
		</g>
		<g>
			<g>
				<path class="st11" d="M695.7,116c1.3,0,2.7-0.2,4-0.2c1.2,0,2-1,1.9-2.2c-0.2-1.1-1.3-1.9-2.4-1.6c-1.3,0.4-2.6,0.6-3.9,1
					C693.7,113.6,693.9,116,695.7,116L695.7,116z"/>
			</g>
		</g>
		<g>
			<g>
				<path class="st11" d="M704.7,104.3c0-0.1,0-0.2,0-0.2c-0.6,0.3-1.1,0.6-1.7,1c2.9,1.2,6.8,0.8,9.9,0.7c3-0.1,2.5-4.6-0.6-4.1
					c-3,0.4-6.3,0-9.3,0.8c-1.3,0.3-1.3,2.4,0,2.6c0.1,0,0.2,0,0.3,0.1C703.9,105.2,704.5,104.9,704.7,104.3L704.7,104.3z"/>
			</g>
		</g>
		<g>
			<g>
				<path class="st11" d="M706.9,104.3c-1,4.2-0.2,9.4,0.1,13.7c0.2,2.6,4.3,2.6,4.1,0c-0.3-4.3-0.1-9.6-1.6-13.7
					C709.1,103.1,707.2,102.9,706.9,104.3L706.9,104.3z"/>
			</g>
		</g>
		<g>
			<g>
				<path class="st11" d="M715.6,103.6c-0.5,2.5-0.4,5.1-0.4,7.7c0,2.2-0.4,5,0.2,7.1c0.2,0.7,0.7,1.3,1.4,1.4c2.1,0.5,4.7,0,6.9,0
					c2.7-0.1,2.7-4.3,0-4.2c-1.7,0.1-4.2,0.6-5.8,0.3c0.5,0.5,1,1,1.4,1.4c-0.6-2-0.3-4.9-0.4-7c-0.1-2.2-0.2-4.5-0.8-6.6
					C717.8,102.4,715.8,102.3,715.6,103.6L715.6,103.6z"/>
			</g>
		</g>
		<g>
			<g>
				<path class="st11" d="M718.5,113c0.2,0,0.6,0,1,0c0.1,0,0.1,0,0.2,0c-0.2,0-0.1,0,0.1,0c0.2,0,0.4,0.1,0.6,0.2
					c1.1,0.4,2.3-0.5,2.5-1.6c0.2-1.2-0.8-2.1-1.9-2.2c-1.1-0.1-2.3,0.1-3.3,0.5c-0.8,0.3-1.4,1.1-1.2,2.1
					C716.7,112.7,717.7,113.1,718.5,113L718.5,113z"/>
			</g>
		</g>
		<g>
			<g>
				<path class="st11" d="M717,105.8c1.4,0.2,2.8,0.5,4.3,0.8c1.2,0.3,2.5-0.5,2.6-1.8c0.2-1.3-0.8-2.3-2.1-2.4
					c-1.7-0.1-3.5,0.1-5.2,0.5c-0.7,0.2-1.2,0.9-1.1,1.6C715.7,105.3,716.3,105.7,717,105.8L717,105.8z"/>
			</g>
		</g>
	</g>
	<g>
		<g>
			<g>
				<path class="st11" d="M46.8,134.6c-5.4-0.1-2.5,7.2-6.1,9c-1.4,0.7-0.6,2.6,0.7,2.7c2.4,0.1-0.8,8.5,3.9,9.2
					c2,0.3,2.8-2.7,0.8-3c-1.2-0.2-0.4-6-1.2-7.3c-0.8-1.3-2.1-1.6-3.5-1.7c0.2,0.9,0.5,1.8,0.7,2.7c1.2-0.7,2.2-1.4,2.7-2.6
					c0.9-1.9,0-5.5,2.3-6.3C48.5,136.7,48.3,134.7,46.8,134.6L46.8,134.6z"/>
			</g>
		</g>
		<g>
			<g>
				<path class="st11" d="M59.3,143.1c-0.9-2.3-3.4-3.7-5.8-2.7c-2.5,1.1-3,4-2.8,6.5c0.2,2.4,1.1,5.3,3.7,6c2.5,0.7,4.7-1,5.5-3.3
					c0.6-1.9-2.3-2.7-2.9-0.8c-0.4,1.2-1.8,1.9-2.7,0.6c-0.6-0.8-0.7-2.3-0.7-3.2c0-0.9,0-2,0.6-2.7c1-1.2,2.2-0.1,2.9,0.8
					C57.9,145.4,59.7,144.3,59.3,143.1L59.3,143.1z"/>
			</g>
		</g>
		<g>
			<g>
				<path class="st11" d="M63.1,140.2c-1,1.8-0.8,4.1-0.9,6.1c-0.1,1.6-0.2,3.7,0.9,5c2.4,3.1,6.4-0.1,7.6-2.6
					c0.7-1.4-1.2-3.1-2.3-1.7c-0.6,0.8-1.1,1.7-2,2.2c-1.5,0.8-1.3-1.1-1.3-2.2c0-2,0.5-4.6-0.2-6.6
					C64.6,139.7,63.5,139.4,63.1,140.2L63.1,140.2z"/>
			</g>
		</g>
		<g>
			<g>
				<path class="st11" d="M68.6,140.2c-0.5,3.6-0.1,7.5-0.2,11.1c-0.1,2.2,3.3,2.2,3.3,0c0-3.6,0.1-7.7-1.1-11.1
					C70.3,139.3,68.7,139.1,68.6,140.2L68.6,140.2z"/>
			</g>
		</g>
		<g>
			<g>
				<path class="st11" d="M74.5,140.2c-0.7,3.7-0.4,7.7-0.3,11.4c0,2,3.1,2,3.1,0c0-3.7,0.2-7.8-0.7-11.4
					C76.4,139.2,74.7,139.2,74.5,140.2L74.5,140.2z"/>
			</g>
		</g>
		<g>
			<g>
				<path class="st11" d="M79.2,139.8c-0.1,0-0.1,0-0.2,0c0.2,0,0.4,0,0.6,0c-1.1-0.2-2.2,0.4-3,1c-0.9,0.7-1.6,1.5-2,2.6
					c-0.5,1.8,2.2,3,3,1.3c0.3-0.6,0.6-1.1,1.1-1.6c0.6-0.6,1.3-1,1.7-1.8c-0.1,0.2-0.2,0.4-0.3,0.5c0.1-0.1,0.1-0.1,0.2-0.2
					C81.2,140.8,80.3,139.7,79.2,139.8L79.2,139.8z"/>
			</g>
		</g>
		<g>
			<g>
				<path class="st11" d="M82.7,140.6c-0.4,3.4-1.1,7.2-0.9,10.6c0.1,2,3.3,2,3.1,0c-0.3-3.7,0.6-7.2-0.2-10.9
					C84.4,139.1,82.8,139.6,82.7,140.6L82.7,140.6z"/>
			</g>
		</g>
		<g>
			<g>
				<path class="st11" d="M87.1,139.9c-1.2,0.3-2.6,1.2-3.4,2.2c-0.6,0.7-0.6,1.6,0.2,2.2c0.7,0.6,1.7,0.3,2.2-0.4
					c0.5-0.7,1.5-1.2,2.2-1.9C89.2,141.1,88.3,139.7,87.1,139.9L87.1,139.9z"/>
			</g>
		</g>
		<g>
			<g>
				<path class="st11" d="M91.5,146.7c2.2,0.5,4.5,0,6.6,0.2c1.9,0.2,1.9-3.1,0-2.9c-1.2,0.1-2.3,0.3-3.5,0.4c-1.2,0-2.4,0-3.4,0.6
					C90.7,145.4,90.7,146.5,91.5,146.7L91.5,146.7z"/>
			</g>
		</g>
		<g>
			<g>
				<path class="st11" d="M99.5,145.4c0.7-2.5-0.1-5.1-2.9-5.6c-2.8-0.5-5.3,1.3-5.9,4c-0.5,2.5-0.4,6.9,2.1,8.5
					c2.3,1.5,5.3,0.5,7-1.5c1.6-1.9-1.5-4-2.6-2c-0.5,1-2.2,1.8-3.1,0.7c-0.8-0.9-0.7-3.3-0.7-4.3c0.1-1.4,0.9-2.9,2.6-2.6
					c1.3,0.3,1.3,1.7,1.7,2.7C97.9,146.3,99.2,146.3,99.5,145.4L99.5,145.4z"/>
			</g>
		</g>
		<g>
			<g>
				<path class="st11" d="M102.8,140.2c-0.9,3.5-0.6,7.7-0.7,11.3c-0.1,1.9,2.9,1.9,3,0c0.2-3.6,0.6-7.8-0.3-11.3
					C104.6,139.2,103,139.2,102.8,140.2L102.8,140.2z"/>
			</g>
		</g>
		<g>
			<g>
				<path class="st11" d="M105.1,144.2c0.3-0.3,2.3-2,2.8-1.8c0.5,0.2,0.2,2.5,0.1,2.9c-0.1,2.1-0.5,4.3-0.5,6.4
					c0,2.2,3.4,2.2,3.4,0c0-2.1,0.2-4.3,0.2-6.4c0-1.5,0.2-3.5-0.8-4.8c-2.2-2.7-5.5,0.6-6.9,2.4C102.6,144,104.2,145,105.1,144.2
					L105.1,144.2z"/>
			</g>
		</g>
		<g>
			<g>
				<path class="st11" d="M114.5,137.3c-0.3,2.8-1.7,17.9,4.3,15.6c1.9-0.7,1.2-3.5-0.8-3c0.2,0-1-11.7-1.3-12.9
					C116.5,135.6,114.6,136.1,114.5,137.3L114.5,137.3z"/>
			</g>
		</g>
		<g>
			<g>
				<path class="st11" d="M112.8,142.5c0.8,0.3,1.8,0.3,2.7,0.4c1,0.1,1.9,0.3,2.8,0.5c2.3,0.7,3-3.2,0.5-3.3
					c-2-0.1-4.4-0.4-6.2,0.5C111.7,141.1,112.1,142.2,112.8,142.5L112.8,142.5z"/>
			</g>
		</g>
		<g>
			<g>
				<path class="st11" d="M135.6,142.2c-1-3-5.8-4.2-7.4-0.9c-0.7,1.4-0.2,3,0.7,4.2c0.6,0.7,1.3,1.2,2,1.7c0.3,0.2,1.3,0.8,1.4,1.2
					c-0.3,0.4-0.6,0.8-1,1.3c-0.4-0.2-0.8-0.5-1.1-0.8c-1.1-0.9-3.3-0.1-2.6,1.5c1.4,3.5,7.3,3.3,8-0.7c0.3-1.8-0.8-3.2-2.1-4.3
					c-0.8-0.6-2.5-1.2-2.1-2.3c0.3-1,0.8-0.4,1.5,0c0.5,0.2,0.8,0.5,1.3,0.7C135,143.9,135.9,143,135.6,142.2L135.6,142.2z"/>
			</g>
		</g>
		<g>
			<g>
				<path class="st11" d="M138.7,137.3c-0.6,2.6-2.9,16,2.5,15.6c0.8-0.1,1.4-0.5,1.6-1.3c0-0.1,0-0.2,0.1-0.2
					c0.5-1.5-1.8-3-2.8-1.6c1-0.3,1.3-0.8,1-1.5c-0.1-0.5-0.2-1-0.1-1.5c0-1,0-1.9,0-2.9c0.1-2.1,0.2-4.2,0-6.2
					C140.9,136.4,139,135.9,138.7,137.3L138.7,137.3z"/>
			</g>
		</g>
		<g>
			<g>
				<path class="st11" d="M136.1,142.1c0.2,1,1.6,1.1,2.4,1.2c1.1,0.1,2.4,0.4,3.4,0c1.4-0.4,1.4-2.4,0-2.8c-0.9-0.2-1.8-0.1-2.7,0
					c-0.8,0-1.6,0-2.4,0.3C136.3,141,136,141.5,136.1,142.1L136.1,142.1z"/>
			</g>
		</g>
		<g>
			<g>
				<path class="st11" d="M146.6,144.1c0.8-0.3,1.3-0.8,2.1-1.1c1.4-0.5,1.5,0,1.6,1.3c0.2,2.1,0,4.2,0,6.3c0,2.9,4.7,2,3.5-0.9
					c0,0,0-0.1,0-0.1c-0.2-0.5-0.9-0.9-1.5-0.8c0,0-0.1,0-0.1,0c0.6,0.6,1.2,1.2,1.9,1.9c-0.2-2-0.2-4-0.4-5.9
					c-0.2-1.4-0.3-3.1-1.4-4.2c-2-1.8-6.4-0.4-6.9,2.3C145.1,143.5,145.7,144.4,146.6,144.1L146.6,144.1z"/>
			</g>
		</g>
		<g>
			<g>
				<path class="st11" d="M151.9,145c-3.3-0.5-6.6,1-6.9,4.6c-0.1,1.7,1,2.9,2.6,3.1c1.8,0.2,3.3-0.8,4.6-1.8
					c1.3-1.1-0.5-3.4-1.8-2.4c-0.6,0.4-1.3,1.1-2,1.2c-0.1,0-0.3,0-0.4,0c0,0.2,0.1,0.2,0.1,0.1c-0.1-0.2,0.1-0.7,0.2-0.9
					c0.6-1.3,2.6-1.3,3.7-1.7C152.9,146.9,153.1,145.2,151.9,145L151.9,145z"/>
			</g>
		</g>
		<g>
			<g>
				<path class="st11" d="M157.1,137.3c-0.1,2.8-1.9,16.8,4,15.4c1.7-0.4,1.4-3.2-0.4-3.1c-0.6,0-1.3-11.3-1.6-12.6
					C158.8,135.9,157.1,136.2,157.1,137.3L157.1,137.3z"/>
			</g>
		</g>
		<g>
			<g>
				<path class="st11" d="M155.8,142.5c0.8,0.3,1.6,0.3,2.4,0.4c0.9,0.1,1.7,0.2,2.6,0.2c2.3-0.1,1.9-3.5-0.4-3.1
					c-1.6,0.2-3.2,0-4.8,0.8C154.7,141.2,155.1,142.2,155.8,142.5L155.8,142.5z"/>
			</g>
		</g>
		<g>
			<g>
				<path class="st11" d="M164.4,146.8c1.9,0.4,4.3,0.3,6.2,0.1c1.9-0.2,2.1-3.2,0-3.1c-1.1,0-2.1,0.2-3.2,0.4c-1,0.1-2.1,0.2-3,0.6
					C163.5,145.1,163.3,146.6,164.4,146.8L164.4,146.8z"/>
			</g>
		</g>
		<g>
			<g>
				<path class="st11" d="M172.6,145.9c0.7-2.6-0.1-5.5-3-6c-2.5-0.4-4.8,0.8-5.4,3.4c-0.6,2.5,0.1,6.4,2,8.2
					c2.2,2.2,4.7,0.9,6.2-1.2c1.1-1.5-1.4-3.4-2.6-2c-0.7,0.8-1.1,1.7-1.9,0.4c-0.6-0.9-0.8-2.6-0.9-3.7c0-1.1,0.5-2.5,1.9-2.2
					c1.3,0.3,1.2,2,1.4,3.1C170.7,147.1,172.4,147,172.6,145.9L172.6,145.9z"/>
			</g>
		</g>
		<g>
			<g>
				<path class="st11" d="M176.4,137.2c2.9,0.2,0.6,4.7,1.6,6.5c0.8,1.4,2.4,1.9,3.8,2.3c-0.1-0.9-0.2-1.8-0.4-2.7
					c-1.4,0.8-2.5,1.3-3,2.9c-0.8,2.3,0.4,5.4-2.6,6.1c-2.1,0.5-1.1,3.9,0.9,3.2c1.7-0.6,3.4-1.2,4.1-3c0.9-2.5-0.5-4.9,2.3-6.6
					c1-0.6,1-2.5-0.4-2.7c-3.7-0.6-1.2-4.7-2.5-6.9c-0.9-1.5-2.6-1.4-4.1-1.2C174.9,135.3,175.3,137.1,176.4,137.2L176.4,137.2z"/>
			</g>
		</g>
	</g>
	<g>
		<g>
			<g>
				<path class="st11" d="M79,163.8c-1.3-0.4-2.4,0-3.2,1.1c-1.8,2.3,0.8,6.1-2.9,7.4c-1.1,0.4-1.4,2.3,0,2.6c4,0.6-0.6,9.6,4.7,9
					c1.9-0.2,1.9-3.2,0-3c0.4,0-0.2-5.6-0.6-6.4c-0.8-1.5-2.1-2-3.7-2.2c0.1,0.9,0.2,1.7,0.4,2.6c1.4-0.5,2.8-1.1,3.6-2.4
					c1-1.8-0.4-5.6,1.8-6.5C80,165.5,80.1,164.1,79,163.8L79,163.8z"/>
			</g>
		</g>
		<g>
			<g>
				<path class="st11" d="M84,172.7c0.8-0.5,1.8-1.2,2.8-1.1c1.4,0.1,1.5,1.3,1.6,2.5c0.2,2,0.2,4,0.2,5.9c0,2.1,3.3,2.1,3.3,0
					c0-3,0.3-7.9-2.1-10.2c-2-1.8-6.1-1-7.2,1.4C82.1,172.1,83,173.4,84,172.7L84,172.7z"/>
			</g>
		</g>
		<g>
			<g>
				<path class="st11" d="M89.1,173.3c-2.9,0.1-7.4,2.5-7.1,5.9c0.3,3.9,5.9,3.1,7.7,0.9c1.2-1.4-0.6-3.2-2-2c-0.5,0.4-1,0.9-1.8,1
					c-0.8,0.1-1.5-0.2-0.8-1c1-1.1,2.8-1.8,4.2-2.4C90.6,175.1,90.5,173.2,89.1,173.3L89.1,173.3z"/>
			</g>
		</g>
		<g>
			<g>
				<path class="st11" d="M102.9,172.6c0.1-2.9-2.6-4.3-5.2-3.4c-2.6,0.8-3.4,3.8-3.4,6.2c0.1,2.5,1.2,5.7,3.8,6.7
					c2.9,1.1,4.9-1,5.8-3.6c0.6-1.8-2.1-2.5-2.8-0.8c-0.2,0.5-0.4,1-0.8,1.5c-1.2,0.3-2,0-2.4-1c-0.4-0.8-0.7-1.7-0.8-2.7
					c-0.1-0.8-0.1-2,0.3-2.8c0.4-1.2,1.3-1.4,2.8-0.7c0.2,0.3,0.4,0.7,0.6,1C101.5,174,102.9,173.6,102.9,172.6L102.9,172.6z"/>
			</g>
		</g>
		<g>
			<g>
				<path class="st11" d="M106.6,166.4c-0.2,3.8,0,7.8,0.2,11.6c0.1,2.1,0.6,4,3,4.1c1.8,0.1,1.9-2.9,0-2.9
					c-0.1,0-0.7-12.1-0.9-13.2C108.6,164.8,106.7,165.2,106.6,166.4L106.6,166.4z"/>
			</g>
		</g>
		<g>
			<g>
				<path class="st11" d="M105.8,169.6c0,0-0.1,0-0.1,0c-0.9-0.2-1.4,0.8-0.8,1.4c0.6,0.7,1.8,0.7,2.6,0.8c1,0.1,2.2,0.1,3.2-0.1
					c1.7-0.3,1.3-3.2-0.4-3c-1,0.1-2,0.3-2.9,0.5c-0.9,0.1-1.8,0.1-2.5,0.7c0.3,0.5,0.6,1,0.8,1.4c0,0,0.1,0,0.1,0
					C106.5,171,106.6,169.8,105.8,169.6L105.8,169.6z"/>
			</g>
		</g>
		<g>
			<g>
				<path class="st11" d="M113.7,165.6C113.7,165.6,113.7,165.6,113.7,165.6c0.2,1.1,1.6,1.3,2.3,0.6c0.7-0.7,0.4-2.1-0.6-2.3
					c0,0,0,0,0,0C114.3,163.7,113.5,164.5,113.7,165.6L113.7,165.6z"/>
			</g>
		</g>
		<g>
			<g>
				<path class="st11" d="M113.9,169.3c-0.4,1.7-0.1,3.6,0,5.4c0.1,2,0.1,4,0.1,6c0,1.8,2.8,1.8,2.9,0c0-3.6,0.4-8.3-1.1-11.6
					C115.4,168.3,114.1,168.5,113.9,169.3L113.9,169.3z"/>
			</g>
		</g>
		<g>
			<g>
				<path class="st11" d="M128.5,174.5c0.1-2.7-1.6-5.9-4.8-5.3c-3.5,0.7-4.1,4.8-3.8,7.7c0.3,2.9,2.2,5.5,5.4,5.2
					c3.5-0.4,3.9-4.4,3.1-7.1c-0.5-1.7-2.9-1-2.6,0.7c0.2,1.3,0.6,3.5-1.1,3.7c-1.8,0.2-2.1-2.3-2.1-3.5c0-1.1-0.1-3,0.9-3.7
					c0.7-0.5,1.7-0.3,2.2,0.4c0.5,0.6,0.6,1.5,0.8,2.2C126.8,175.8,128.4,175.6,128.5,174.5L128.5,174.5z"/>
			</g>
		</g>
		<g>
			<g>
				<path class="st11" d="M132.2,169.2c-1.1,3.3,0.3,7.4,0,10.8c-0.2,1.9,2.9,1.9,3,0c0.2-3.4,0.3-7.9-1.1-11.1
					C133.7,168.1,132.5,168.4,132.2,169.2L132.2,169.2z"/>
			</g>
		</g>
		<g>
			<g>
				<path class="st11" d="M135.2,172.3c0.9-0.3,1.9-1.1,2.8-1.2c0.6,0,0-0.1,0,0.5c0,0.5,0,1.1,0,1.6c-0.1,2.2-0.2,4.4-0.3,6.6
					c-0.1,2,3.3,2,3.1,0c-0.1-2-0.1-4,0-6c0.1-1.5,0.4-3.3-0.4-4.6c-1.6-2.6-5.3-0.3-6.3,1.6C133.8,171.6,134.4,172.6,135.2,172.3
					L135.2,172.3z"/>
			</g>
		</g>
		<g>
			<g>
				<path class="st11" d="M144.2,165.9c2.5,0.1,1.6,5.1,2.4,6.7c0.6,1.3,1.6,1.8,2.9,2.2c0-1,0-1.9,0-2.9c-1.5,0.6-2.6,1.2-3.1,2.7
					c-0.7,2,0.7,5.7-2,6.3c-2.1,0.5-1.2,3.8,0.9,3.2c1.3-0.4,2.5-0.8,3.3-2c1.3-2-0.3-6.2,2.1-7.5c1.2-0.6,0.9-2.5-0.4-2.8
					c-2.8-0.7-0.7-5.2-2.5-7.1c-1.1-1.1-2.4-1.1-3.8-0.6C143,164.6,143.2,165.9,144.2,165.9L144.2,165.9z"/>
			</g>
		</g>
	</g>
	<path class="st11" d="M297.6,118.1c0-0.8-0.4-1.6-1-2.1c1.3-1.3,0.8-4-1.6-3.9c-23.4,0.9-46.9,1.6-70.3,1.9
		c-12.2,0-24.5-0.1-36.7-0.4c-0.8,0-1.4,0.3-1.7,0.7c-1.8,0.6-1.6,3.6,0.6,3.7c0.2,0.1,0.5,0.2,0.7,0.3c-2.4,0.8-2.2,4.9,0.7,4.8
		c26.7-0.2,53.3-0.6,80-1.5c9.3,0.4,18.7,0.8,28,1.2C299.1,122.9,299.5,119.2,297.6,118.1z"/>
	<path class="st11" d="M560.6,114.2c-1.3-0.8-2.5-1.6-3.8-2.4c-0.8-0.8-1.9-1.5-3.1-2.1c-6.3-4.4-12.3-9.1-18-14.3
		c-1.6-1.5-3.8-0.4-4.4,1.2c-0.9,0.6-1.4,1.7-0.9,2.8c-0.6,0.9-0.6,2,0.4,3c4.5,4.2,9.1,8.3,13.8,12.2c-8,0-15.9,0.1-23.9,0.4
		c-1.1,0-2.2,0-3.3,0c-1.4-0.1-2.7-0.3-4.1-0.4c-6-0.6-12.1-1.1-18.2-1.4c-4.7-0.2-11.3-1.3-15.8,0.5c-0.8,0.3-1.2,0.8-1.3,1.7
		c0,0.2,0,0.3-0.1,0.5c-0.1,0.8,0.4,1.4,1.1,1.6c-2.1,0.6-2.4,3.6,0,4.4c5,1.6,10.9,0.8,16.1,0.8c6.1,0,12.3,0,18.4,0
		c10.2,0,20.5,0.1,30.7,0.1c-3.8,5.1-7.8,10.2-11.9,15.1c-1.8,2.2,0.5,5.8,3.2,4.1c0.1,0,0.1-0.1,0.2-0.1c0.6,1.2,1.9,1.9,3.4,0.9
		c9.3-6.4,14.1-16.7,21.9-24.5C562.3,117.1,562,115.1,560.6,114.2z"/>
</g>
<g id="Layer_3">
	<g>
		<g>
			<path class="st13" d="M727.8,64.4c-1.4-0.9-2.8-1.7-4.4-2.4"/>
			<path class="st18" d="M714.1,58.3c-26-8.1-65-5.7-92.2,5.4c-32.7,13.3-48.2,36.1-44,56.1c3.3,15.9,18.7,30.8,44.3,38.6
				c25.6,7.7,61.8,7.4,88.8-2.6c23.3-8.6,37.3-23,42.4-37.1c6.6-17.9,0.1-34.4-17.2-48.3"/>
			<path class="st13" d="M732.2,67.4c-1.3-0.9-2.7-1.9-4.1-2.8"/>
		</g>
	</g>
	<g>
		<g>
			<g>
				<path class="st11" d="M643.9,191.8c-0.6-4.9-8.1-6.3-10.6-2.1c-1.4,2.3-0.5,4.5,1.4,6c1.2,1,2.6,1.7,3.8,2.8
					c0.6,0.6,1.3,1.4,1.5,2.2c0.5,1.9-2.4,2.6-2.8,0.4c-0.4-2.5-4.8-1.9-4.5,0.6c0.7,5.5,8.5,8.2,11.1,2.4c1.1-2.5,0.5-5.2-1.1-7.2
					c-0.9-1.2-2-2.1-3.1-2.9c-0.4-0.3-3.4-1.9-0.6-2.5c0.4-0.1,2.2,1.3,2.7,1.6C642.6,193.5,644.1,193,643.9,191.8L643.9,191.8z"/>
			</g>
		</g>
		<g>
			<g>
				<path class="st11" d="M646.1,191c1.6,0.6,3.5,0.4,5.2,0.4c1.9,0,3.7,0,5.6,0c2.7,0,2.7-4.4,0-4.2c-2,0.1-4,0.2-6,0.3
					c-1.8,0.1-3.5,0.1-5.1,0.8C644.5,188.9,645,190.6,646.1,191L646.1,191z"/>
			</g>
		</g>
		<g>
			<g>
				<path class="st11" d="M650.3,190.5c-0.2,4.6-0.4,9.2-0.7,13.7c-0.2,2.8,4.3,2.9,4.4,0c0.1-4.6,0.1-9.2-0.3-13.7
					C653.5,188.3,650.4,188.3,650.3,190.5L650.3,190.5z"/>
			</g>
		</g>
		<g>
			<g>
				<path class="st11" d="M671.3,195.5c1.3-3.5-0.1-8.2-4.6-7.9c-5.1,0.4-6.2,6.2-5.9,10.3c0.3,3.8,1.9,8.9,6.7,8.5
					c5.1-0.5,5.3-7.2,5.2-11.1c-0.1-2.5-3.8-2.5-3.9,0c-0.1,1.7,0.1,4-0.7,5.5c-1.5,3-2.9-0.4-3.1-2.2c-0.2-1.7-0.4-3.9,0.3-5.5
					c0.5-1.1,1.8-2.3,3-1.2c0.6,0.6,0.4,2.4,0.5,3.2C669.1,196.5,670.8,196.9,671.3,195.5L671.3,195.5z"/>
			</g>
		</g>
		<g>
			<g>
				<path class="st11" d="M675.5,189.2c-1,2.3-0.8,5.1-0.9,7.5c-0.1,2.8-0.1,5.6-0.1,8.3c0,2.9,4.7,2.9,4.5,0
					c-0.2-2.8-0.3-5.6-0.3-8.3c0-2.5,0.3-5.1-0.5-7.5C677.9,187.8,676.1,188,675.5,189.2L675.5,189.2z"/>
			</g>
		</g>
		<g>
			<g>
				<path class="st11" d="M677.7,191.4c0.8,0,3-0.3,3.7,0.3c0.5,0.4,0.5,1.5,0.3,2.1c-0.4,1.6-2.1,2.3-3.6,2
					c-2.7-0.5-3.9,3.6-1.2,4.2c4,0.9,8.3-1.5,8.8-5.8c0.2-1.8-0.4-3.8-1.8-5.1c-1.7-1.5-4.7-1.1-6.7-0.6
					C675.7,188.9,676,191.5,677.7,191.4L677.7,191.4z"/>
			</g>
		</g>
		<g>
			<g>
				<path class="st11" d="M679.6,199.1c0.3,1.3,0.9,2.5,1.5,3.7c0.6,1.2,1,2.5,1.7,3.6c1.3,2.5,5,0.3,3.8-2.2
					c-0.6-1.2-1.3-2.3-1.9-3.5c-0.6-1.1-1.2-2.3-2.1-3.3C681.3,196.1,679.3,197.5,679.6,199.1L679.6,199.1z"/>
			</g>
		</g>
		<g>
			<g>
				<path class="st11" d="M698.8,188.4c-2.4-0.4-5.1-1.2-7.5-0.6c-0.7,0.1-1.2,0.8-1.4,1.4c-0.7,2.5-0.2,5.5-0.1,8.1
					c0,2.5-0.4,5.5,0.2,8c0.2,0.7,0.8,1.3,1.5,1.5c1.9,0.5,4.3,0.1,6.3,0.1c2.9,0,2.9-4.7,0-4.5c-1.5,0.1-3.7,0.6-5.1,0.3
					c0.5,0.5,1,1,1.5,1.5c-0.6-2-0.2-4.7-0.2-6.8c0-2.1-0.6-5-0.1-7c-0.5,0.5-0.9,0.9-1.4,1.4c1.8-0.5,4.2-0.2,6.1-0.4
					C699.9,191.2,700.6,188.7,698.8,188.4L698.8,188.4z"/>
			</g>
		</g>
		<g>
			<g>
				<path class="st11" d="M693.6,199.5c0.7,0,1.3,0,2,0c0.7,0,1.3,0.2,2,0.2c1.1,0,2.1-1,2.1-2.1c0-1.2-1-2-2.1-2.1
					c-1.4-0.1-3.1,0.3-4.5,0.5C691.2,196.4,691.6,199.5,693.6,199.5L693.6,199.5z"/>
			</g>
		</g>
	</g>
</g>
</svg>
